# xmcd CD database file
#
# Track frame offsets:
#	150
#	24275
#	43100
#	62325
#	90575
#	101305
#	112155
#	126962
#	146540
#	159285
#	175750
#	188125
#	218720
#	233900
#	249790
#	265295
#	286540
#
# Disc length: 3973 seconds
#
# Revision: 17
# Processed by: cddbd v1.5.2PL0 Copyright (c) Steve Scherf et al.
# Submitted via: CDex 2.15
#
DISCID=da0f8311
DTITLE=ZZ Top - One Foot In The Blues
DYEAR=1994
DGENRE=Blues
TTITLE0=Brown Sugar (1970)
TTITLE1=Just Got Back From Baby's (1970)
TTITLE2=A Fool For Your Stockings (1979)
TTITLE3=I Need You Tonight (1983)
TTITLE4=She Loves My Automobile (1979)
TTITLE5=Hi Fi Mama (1979)
TTITLE6=Hot, Blue And Righteous (1973)
TTITLE7=My Head's In Mississippi (1990)
TTITLE8=Lowdown In The Street (1979)
TTITLE9=If I Could Only Flag Her Down (1983)
TTITLE10=Apologies To Pearly (1972)
TTITLE11=Sure Got Cold After The Rain Fell (1972)
TTITLE12=Bar-B-Q (1972)
TTITLE13=Old Man (1970)
TTITLE14=Certified Blues (1970)
TTITLE15=2000 Blues (1990)
TTITLE16=Heaven, Hell Or Houston (1981)
EXTD=YEAR: 1994
EXTT0=
EXTT1=
EXTT2=
EXTT3=
EXTT4=
EXTT5=
EXTT6=
EXTT7=
EXTT8=
EXTT9=
EXTT10=
EXTT11=
EXTT12=
EXTT13=
EXTT14=
EXTT15=
EXTT16=
PLAYORDER=
